<svg xmlns="http://www.w3.org/2000/svg" width="698.399" height="284.249" viewBox="0 0 698.399 284.249" style="">
  <g id="Group_10" data-name="Group 10" transform="translate(-523.91 -451)">
    <path id="Path_1" data-name="Path 1" d="M0,0H690.4" transform="translate(527.91 731.249)" fill="none" stroke="#343c47" stroke-linecap="round" stroke-width="8" class="tTqCtLny_0"></path>
    <g id="paper" transform="translate(-19 33)">
      <path id="Rectangle_31" data-name="Rectangle 31" width="58" height="58" transform="translate(793 518)" fill="rgba(93,137,159,0.49)" d="M 12,0 L 46,0 A 12,12,0,0,1,58,12 L 58,46 A 12,12,0,0,1,46,58 L 12,58 A 12,12,0,0,1,0,46 L 0,12 A 12,12,0,0,1,12,0" class="tTqCtLny_1"></path>
      <path id="Path_2" data-name="Path 2" d="M33,0h83a33,33,0,0,1,33,33v83a33,33,0,0,1-33,33H33A33,33,0,0,1,0,116V33A33,33,0,0,1,33,0Z" transform="translate(806 551)" fill="#343c47" class="tTqCtLny_2"></path>
      <path id="Line_3" data-name="Line 3" transform="translate(855.5 576.5)" fill="none" stroke="#fefefe" stroke-linecap="round" stroke-width="3" d="M0,0L50,0" class="tTqCtLny_3"></path>
      <path id="Line_4" data-name="Line 4" transform="translate(832.325 596.5)" fill="none" stroke="#fefefe" stroke-linecap="round" stroke-width="3" d="M0,0L91.175,0" class="tTqCtLny_4"></path>
      <path id="Line_5" data-name="Line 5" transform="translate(832.325 608.5)" fill="none" stroke="#fefefe" stroke-linecap="round" stroke-width="3" d="M0,0L91.175,0" class="tTqCtLny_5"></path>
      <text id="_" data-name="$" transform="translate(836 677)" fill="#fefefe" font-size="48" font-family="Montserrat-Bold, Montserrat" font-weight="700"><tspan x="0" y="0">$</tspan></text>
      <path id="Line_9" data-name="Line 9" transform="translate(832.325 619.5)" fill="none" stroke="#fefefe" stroke-linecap="round" stroke-width="3" d="M0,0L38.615,0" class="tTqCtLny_6"></path>
    </g>
    <g id="house" transform="translate(-33 36)">
      <g id="Polygon_1" data-name="Polygon 1" transform="translate(891 415)" fill="#fefefe">
        <path d="M 208.4066314697266 280.5 L 28.59339904785156 280.5 C 25.56066703796387 280.5 22.70789909362793 279.7701110839844 20.11429977416992 278.3305358886719 C 17.68353271484375 276.9813537597656 15.5754337310791 275.0292358398438 14.01786708831787 272.6852722167969 C 12.4603328704834 270.34130859375 11.47733306884766 267.6415710449219 11.17520046234131 264.8779296875 C 10.8528003692627 261.92919921875 11.28506660461426 259.0164184570312 12.45993328094482 256.2205200195312 L 102.3665313720703 42.26554489135742 C 103.7895965576172 38.87897872924805 106.1148986816406 36.09831237792969 109.0909652709961 34.22417831420898 C 111.8742370605469 32.47144317626953 115.127799987793 31.54501152038574 118.5 31.54501152038574 C 121.8721694946289 31.54501152038574 125.1257629394531 32.47144317626953 127.9090347290039 34.22417831420898 C 130.8851013183594 36.09831237792969 133.2103729248047 38.87897872924805 134.6334686279297 42.26554489135742 L 224.5400695800781 256.2205200195312 C 225.7149353027344 259.0164184570312 226.1472015380859 261.92919921875 225.8247985839844 264.8779296875 C 225.5226593017578 267.6415710449219 224.5396728515625 270.34130859375 222.9821319580078 272.6852722167969 C 221.424560546875 275.0292663574219 219.3164672851562 276.9813842773438 216.8856964111328 278.3305358886719 C 214.2921295166016 279.7701110839844 211.4393615722656 280.5 208.4066314697266 280.5 Z" stroke="none" class="tTqCtLny_7"></path>
        <path d="M 118.5 33.04501342773438 C 115.4110717773438 33.04501342773438 112.4338912963867 33.89163208007812 109.8902893066406 35.49343872070312 C 107.1760711669922 37.20269775390625 105.0526123046875 39.745361328125 103.7494354248047 42.84664916992188 L 13.84278869628906 256.8016052246094 C 12.76774597167969 259.3599243164062 12.37193298339844 262.0223693847656 12.66629028320312 264.7149047851562 C 12.9425048828125 267.2410888671875 13.84185791015625 269.7101135253906 15.2672119140625 271.8551025390625 C 16.69253540039062 274.0001220703125 18.620361328125 275.7857666015625 20.84225463867188 277.0190124511719 C 23.21049499511719 278.33349609375 25.818359375 279 28.59339904785156 279 L 208.4066009521484 279 C 211.181640625 279 213.7895050048828 278.33349609375 216.1577453613281 277.0190124511719 C 218.379638671875 275.7857666015625 220.3074645996094 274.0001220703125 221.7327880859375 271.8551025390625 C 223.1581115722656 269.7100830078125 224.0574951171875 267.2410278320312 224.3336791992188 264.7149047851562 C 224.6280670166016 262.0223693847656 224.2322540283203 259.3599853515625 223.1571807861328 256.8016357421875 L 133.2505798339844 42.84661865234375 C 131.9473876953125 39.745361328125 129.8239288330078 37.20269775390625 127.1097106933594 35.49343872070312 C 124.5661087036133 33.89163208007812 121.5889282226562 33.04501342773438 118.5 33.04501342773438 M 118.5 30.04501342773438 C 125.6278228759766 30.04501342773438 132.7556457519531 33.92483520507812 136.0163269042969 41.68441772460938 L 225.9229278564453 255.6394348144531 C 231.184814453125 268.161376953125 221.9891815185547 282 208.4066009521484 282 L 28.59339904785156 282 C 15.01078796386719 282 5.815185546875 268.161376953125 11.07704162597656 255.6394348144531 L 100.9836730957031 41.68441772460938 C 104.2443542480469 33.92483520507812 111.3721771240234 30.04501342773438 118.5 30.04501342773438 Z" stroke="none" fill="#343c47" class="tTqCtLny_8"></path>
      </g>
      <path id="Polygon_3" data-name="Polygon 3" d="M80.618,39.375c6.667-15.1,28.1-15.1,34.763,0l68.844,155.952A19,19,0,0,1,166.844,222H29.156a19,19,0,0,1-17.382-26.673Z" transform="translate(991 472)" fill="rgba(93,137,159,0.49)" class="tTqCtLny_9"></path>
      <g id="Polygon_2" data-name="Polygon 2" transform="translate(971 484)" fill="#fefefe">
        <path d="M 57.29936981201172 88.50000762939453 L 19.70062637329102 88.5 C 17.69958114624023 88.5 15.81915950775146 88.01746368408203 14.11160373687744 87.0657958984375 C 12.51092624664307 86.17369842529297 11.1244592666626 84.88321685791016 10.10208129882812 83.33387756347656 C 9.079704284667969 81.78453063964844 8.438526153564453 80.00225067138672 8.247870445251465 78.17971038818359 C 8.04448127746582 76.23546600341797 8.340415000915527 74.31681060791016 9.127426147460938 72.47702789306641 L 27.92679214477539 28.53044128417969 C 28.87055969238281 26.3242301940918 30.39791488647461 24.51444053649902 32.3437385559082 23.29671859741211 C 34.1661262512207 22.15624046325684 36.29492568969727 21.55341911315918 38.50000381469727 21.55341911315918 C 40.70507049560547 21.55341911315918 42.83386993408203 22.15624046325684 44.65625762939453 23.29671859741211 C 46.60208129882812 24.51444053649902 48.12943649291992 26.3242301940918 49.07320404052734 28.53044128417969 L 67.87258148193359 72.47702789306641 C 68.65959167480469 74.31681060791016 68.95552825927734 76.23546600341797 68.75213623046875 78.17971038818359 C 68.56148529052734 80.00224304199219 67.92030334472656 81.78453063964844 66.89793395996094 83.3338623046875 C 65.87555694580078 84.88320922851562 64.48908233642578 86.17369842529297 62.88840484619141 87.0657958984375 C 61.18083572387695 88.01747131347656 59.3004150390625 88.50000762939453 57.29936981201172 88.50000762939453 Z" stroke="none" class="tTqCtLny_10"></path>
        <path d="M 38.50000381469727 23.05341339111328 C 36.57667541503906 23.05341339111328 34.72303771972656 23.57723236083984 33.13948440551758 24.56824493408203 C 31.43027496337891 25.63789367675781 30.14047622680664 27.16944885253906 29.305908203125 29.12039184570312 L 10.50653076171875 73.06697845458984 C 9.821235656738281 74.66896057128906 9.563247680664062 76.33663940429688 9.739730834960938 78.02365112304688 C 9.905448913574219 79.60783386230469 10.46368408203125 81.15840911865234 11.35407257080078 82.50772857666016 C 12.24445343017578 83.85703277587891 13.45050811767578 84.98011779785156 14.84183883666992 85.75555419921875 C 16.323486328125 86.58130645751953 17.95821380615234 87 19.70062637329102 87 L 57.29936981201172 87.00001525878906 C 59.04177856445312 87.00001525878906 60.67650985717773 86.58131408691406 62.15815734863281 85.75555419921875 C 63.54949951171875 84.98011779785156 64.75555419921875 83.85703277587891 65.64593505859375 82.50772094726562 C 66.53632354736328 81.15840148925781 67.09454345703125 79.60783386230469 67.26027679443359 78.02363586425781 C 67.43674468994141 76.33662414550781 67.17875671386719 74.66896057128906 66.49346160888672 73.06697845458984 L 47.69409942626953 29.12039184570312 C 46.85951995849609 27.16945648193359 45.56972122192383 25.63789367675781 43.86050796508789 24.56824493408203 C 42.27695846557617 23.57723236083984 40.42333221435547 23.05341339111328 38.50000381469727 23.05341339111328 M 38.5 20.05341339111328 C 43.35152053833008 20.05341339111328 48.20304489135742 22.68243408203125 50.45232391357422 27.94048309326172 L 69.25168609619141 71.88706970214844 C 72.92087554931641 80.46437835693359 66.62852478027344 90.00001525878906 57.29936981201172 90.00001525878906 L 19.70062637329102 90 C 10.37147521972656 90.00001525878906 4.079132080078125 80.46437835693359 7.748306274414062 71.88706970214844 L 26.54768753051758 27.94048309326172 C 28.79695510864258 22.68243408203125 33.64847564697266 20.05341339111328 38.5 20.05341339111328 Z" stroke="none" fill="#343c47" class="tTqCtLny_11"></path>
      </g>
      <path id="Rectangle_37" data-name="Rectangle 37" d="M29.5,0h0A29.5,29.5,0,0,1,59,29.5V93a0,0,0,0,1,0,0H0a0,0,0,0,1,0,0V29.5A29.5,29.5,0,0,1,29.5,0Z" transform="translate(980 601)" fill="#343c47" class="tTqCtLny_12"></path>
      <path id="Ellipse_3" data-name="Ellipse 3" transform="translate(984 648)" fill="#fefefe" d="M0,6A6,6 0,1,1 12,6A6,6 0,1,1 0,6" class="tTqCtLny_13"></path>
    </g>
    <g id="credit_card" data-name="credit card" transform="translate(8.47 26.622)">
      <g id="Rectangle_28" data-name="Rectangle 28" transform="translate(706.53 640.378)" fill="#fefefe" stroke="#343c47" stroke-width="3">
        <path width="94" height="54" stroke="none" d="M 12,0 L 82,0 A 12,12,0,0,1,94,12 L 94,42 A 12,12,0,0,1,82,54 L 12,54 A 12,12,0,0,1,0,42 L 0,12 A 12,12,0,0,1,12,0" class="tTqCtLny_14"></path>
        <path width="91" height="51" fill="none" d="M 11.5,1.5 L 82.5,1.5 A 10,10,0,0,1,92.5,11.5 L 92.5,42.5 A 10,10,0,0,1,82.5,52.5 L 11.5,52.5 A 10,10,0,0,1,1.5,42.5 L 1.5,11.5 A 10,10,0,0,1,11.5,1.5" class="tTqCtLny_15"></path>
      </g>
      <path id="Rectangle_32" data-name="Rectangle 32" width="88" height="13" transform="translate(709.53 654.378)" fill="rgba(93,137,159,0.49)" d="M0 0 L88 0 L88 13 L0 13 Z" class="tTqCtLny_16"></path>
      <path id="Line_6" data-name="Line 6" transform="translate(715.157 674.258)" fill="none" stroke="#343c47" stroke-linecap="round" stroke-width="3" d="M0,0L45.678,0" class="tTqCtLny_17"></path>
      <path id="Line_7" data-name="Line 7" transform="translate(767.36 674.258)" fill="none" stroke="#343c47" stroke-linecap="round" stroke-width="3" d="M0,0L23.926,0" class="tTqCtLny_18"></path>
      <path id="Line_8" data-name="Line 8" transform="translate(715.157 680.784)" fill="none" stroke="#343c47" stroke-linecap="round" stroke-width="3" d="M0,0L45.678,0" class="tTqCtLny_19"></path>
    </g>
    <g id="crane" transform="translate(635.309 612.206)">
      <path id="Polygon_4" data-name="Polygon 4" d="M14.559,1.647a3,3,0,0,1,3.882,0l8.327,7.066A3,3,0,0,1,24.827,14H8.173A3,3,0,0,1,6.232,8.712Z" transform="translate(92.691 24.795)" fill="rgba(93,137,159,0.49)" class="tTqCtLny_20"></path>
      <g id="Group_9" data-name="Group 9" transform="translate(26.346 0)">
        <path id="Path_3" data-name="Path 3" d="M4665.775,1219,4678,1238.542l-12.226,19.542L4678,1277.626l-12.226,19.542L4678,1316.71l-12.226,19.542Z" transform="translate(-4665.775 -1219)" fill="none" stroke="#343c47" stroke-linecap="round" stroke-linejoin="round" stroke-width="3" class="tTqCtLny_21"></path>
        <path id="Path_4" data-name="Path 4" d="M12.226,117.252,0,97.71,12.226,78.168,0,58.626,12.226,39.084,0,19.542,12.226,0Z" fill="none" stroke="#343c47" stroke-linecap="round" stroke-linejoin="round" stroke-width="3" class="tTqCtLny_22"></path>
      </g>
      <path id="Line_14" data-name="Line 14" transform="translate(-0.5 11.294)" fill="none" stroke="#343c47" stroke-linecap="round" stroke-width="3" d="M0,0L138,0" class="tTqCtLny_23"></path>
      <path id="Line_15" data-name="Line 15" transform="translate(9.5 20.294)" fill="none" stroke="#343c47" stroke-linecap="round" stroke-width="3" d="M0,0L106,0" class="tTqCtLny_24"></path>
    </g>
    <g id="car" transform="translate(-25 -2)">
      <g id="Rectangle_38" data-name="Rectangle 38" transform="translate(1089 697)" fill="#fff" stroke="#343c47" stroke-linecap="round" stroke-width="3">
        <path d="M20,0H87A10,10,0,0,1,97,10V22a5,5,0,0,1-5,5H5a5,5,0,0,1-5-5V20A20,20,0,0,1,20,0Z" stroke="none" class="tTqCtLny_25"></path>
        <path d="M20,1.5H87A8.5,8.5,0,0,1,95.5,10V22A3.5,3.5,0,0,1,92,25.5H5A3.5,3.5,0,0,1,1.5,22V20A18.5,18.5,0,0,1,20,1.5Z" fill="none" class="tTqCtLny_26"></path>
      </g>
      <g id="Ellipse_4" data-name="Ellipse 4" transform="translate(1108 712)" fill="#fff" stroke="#343c47" stroke-linecap="round" stroke-width="3">
        <path stroke="none" d="M0,10.5A10,10.5 0,1,1 20,10.5A10,10.5 0,1,1 0,10.5" class="tTqCtLny_27"></path>
        <path fill="none" d="M1.5,10.5A8.5,9 0,1,1 18.5,10.5A8.5,9 0,1,1 1.5,10.5" class="tTqCtLny_28"></path>
      </g>
      <g id="Ellipse_5" data-name="Ellipse 5" transform="translate(1149 711)" fill="#fff" stroke="#343c47" stroke-linecap="round" stroke-width="3">
        <path stroke="none" d="M0,10.5A10.5,10.5 0,1,1 21,10.5A10.5,10.5 0,1,1 0,10.5" class="tTqCtLny_29"></path>
        <path fill="none" d="M1.5,10.5A9,9 0,1,1 19.5,10.5A9,9 0,1,1 1.5,10.5" class="tTqCtLny_30"></path>
      </g>
      <path id="Path_5" data-name="Path 5" d="M13.974,0h0L0,12.759" transform="translate(1120.061 684.655)" fill="none" stroke="#343c47" stroke-linecap="round" stroke-width="4" class="tTqCtLny_31"></path>
      <path id="Line_11" data-name="Line 11" transform="translate(1150.795 687.5)" fill="none" stroke="#343c47" stroke-linecap="round" stroke-width="4" d="M0,0L0,9.915" class="tTqCtLny_32"></path>
      <path id="Line_12" data-name="Line 12" transform="translate(1138.5 699.5)" fill="none" stroke="#343c47" stroke-linecap="round" stroke-width="3" d="M0,0L0,13" class="tTqCtLny_33"></path>
      <path id="Line_13" data-name="Line 13" transform="translate(1128.5 703.5)" fill="none" stroke="#343c47" stroke-linecap="round" stroke-width="3" d="M3,0L0,0" class="tTqCtLny_34"></path>
    </g>
  </g>
<style data-made-with="vivus-instant">.tTqCtLny_0{stroke-dasharray:691 693;stroke-dashoffset:692;animation:tTqCtLny_draw 2000ms linear 0ms forwards;}.tTqCtLny_1{stroke-dasharray:212 214;stroke-dashoffset:213;animation:tTqCtLny_draw 2000ms linear 29ms forwards;}.tTqCtLny_2{stroke-dasharray:540 542;stroke-dashoffset:541;animation:tTqCtLny_draw 2000ms linear 58ms forwards;}.tTqCtLny_3{stroke-dasharray:50 52;stroke-dashoffset:51;animation:tTqCtLny_draw 2000ms linear 88ms forwards;}.tTqCtLny_4{stroke-dasharray:92 94;stroke-dashoffset:93;animation:tTqCtLny_draw 2000ms linear 117ms forwards;}.tTqCtLny_5{stroke-dasharray:92 94;stroke-dashoffset:93;animation:tTqCtLny_draw 2000ms linear 147ms forwards;}.tTqCtLny_6{stroke-dasharray:39 41;stroke-dashoffset:40;animation:tTqCtLny_draw 2000ms linear 176ms forwards;}.tTqCtLny_7{stroke-dasharray:755 757;stroke-dashoffset:756;animation:tTqCtLny_draw 2000ms linear 205ms forwards;}.tTqCtLny_8{stroke-dasharray:1509 1511;stroke-dashoffset:1510;animation:tTqCtLny_draw 2000ms linear 235ms forwards;}.tTqCtLny_9{stroke-dasharray:599 601;stroke-dashoffset:600;animation:tTqCtLny_draw 2000ms linear 264ms forwards;}.tTqCtLny_10{stroke-dasharray:206 208;stroke-dashoffset:207;animation:tTqCtLny_draw 2000ms linear 294ms forwards;}.tTqCtLny_11{stroke-dasharray:412 414;stroke-dashoffset:413;animation:tTqCtLny_draw 2000ms linear 323ms forwards;}.tTqCtLny_12{stroke-dasharray:279 281;stroke-dashoffset:280;animation:tTqCtLny_draw 2000ms linear 352ms forwards;}.tTqCtLny_13{stroke-dasharray:38 40;stroke-dashoffset:39;animation:tTqCtLny_draw 2000ms linear 382ms forwards;}.tTqCtLny_14{stroke-dasharray:276 278;stroke-dashoffset:277;animation:tTqCtLny_draw 2000ms linear 411ms forwards;}.tTqCtLny_15{stroke-dasharray:267 269;stroke-dashoffset:268;animation:tTqCtLny_draw 2000ms linear 441ms forwards;}.tTqCtLny_16{stroke-dasharray:202 204;stroke-dashoffset:203;animation:tTqCtLny_draw 2000ms linear 470ms forwards;}.tTqCtLny_17{stroke-dasharray:46 48;stroke-dashoffset:47;animation:tTqCtLny_draw 2000ms linear 500ms forwards;}.tTqCtLny_18{stroke-dasharray:24 26;stroke-dashoffset:25;animation:tTqCtLny_draw 2000ms linear 529ms forwards;}.tTqCtLny_19{stroke-dasharray:46 48;stroke-dashoffset:47;animation:tTqCtLny_draw 2000ms linear 558ms forwards;}.tTqCtLny_20{stroke-dasharray:58 60;stroke-dashoffset:59;animation:tTqCtLny_draw 2000ms linear 588ms forwards;}.tTqCtLny_21{stroke-dasharray:256 258;stroke-dashoffset:257;animation:tTqCtLny_draw 2000ms linear 617ms forwards;}.tTqCtLny_22{stroke-dasharray:256 258;stroke-dashoffset:257;animation:tTqCtLny_draw 2000ms linear 647ms forwards;}.tTqCtLny_23{stroke-dasharray:138 140;stroke-dashoffset:139;animation:tTqCtLny_draw 2000ms linear 676ms forwards;}.tTqCtLny_24{stroke-dasharray:106 108;stroke-dashoffset:107;animation:tTqCtLny_draw 2000ms linear 705ms forwards;}.tTqCtLny_25{stroke-dasharray:231 233;stroke-dashoffset:232;animation:tTqCtLny_draw 2000ms linear 735ms forwards;}.tTqCtLny_26{stroke-dasharray:222 224;stroke-dashoffset:223;animation:tTqCtLny_draw 2000ms linear 764ms forwards;}.tTqCtLny_27{stroke-dasharray:65 67;stroke-dashoffset:66;animation:tTqCtLny_draw 2000ms linear 794ms forwards;}.tTqCtLny_28{stroke-dasharray:56 58;stroke-dashoffset:57;animation:tTqCtLny_draw 2000ms linear 823ms forwards;}.tTqCtLny_29{stroke-dasharray:66 68;stroke-dashoffset:67;animation:tTqCtLny_draw 2000ms linear 852ms forwards;}.tTqCtLny_30{stroke-dasharray:57 59;stroke-dashoffset:58;animation:tTqCtLny_draw 2000ms linear 882ms forwards;}.tTqCtLny_31{stroke-dasharray:19 21;stroke-dashoffset:20;animation:tTqCtLny_draw 2000ms linear 911ms forwards;}.tTqCtLny_32{stroke-dasharray:10 12;stroke-dashoffset:11;animation:tTqCtLny_draw 2000ms linear 941ms forwards;}.tTqCtLny_33{stroke-dasharray:13 15;stroke-dashoffset:14;animation:tTqCtLny_draw 2000ms linear 970ms forwards;}.tTqCtLny_34{stroke-dasharray:3 5;stroke-dashoffset:4;animation:tTqCtLny_draw 2000ms linear 1000ms forwards;}@keyframes tTqCtLny_draw{100%{stroke-dashoffset:0;}}@keyframes tTqCtLny_fade{0%{stroke-opacity:1;}94.44444444444444%{stroke-opacity:1;}100%{stroke-opacity:0;}}</style></svg>
